PathFileType	4	(X/Y/Z)	SUBJ36_2_walk_RCNL2025.trc
DataRate	CameraRate	NumFrames	NumMarkers	Units	OrigDataRate	OrigDataStartFrame	OrigNumFrames
100	100	6	25	mm	100	350	399
Frame#	Time	R_Shoulder			L_Shoulder			C7			J_Notch			R_Elbow			L_Elbow			R_Wrist			L_Wrist			R_Asis			L_Asis			Sacral			Thoracic			Sternum			R_Thigh_Lateral			R_Knee_Lateral			R_Shank_Lateral			R_Ankle_Lateral			R_Heel			R_Toe			L_Thigh_Lateral			L_Knee_Lateral			L_Shank_Lateral			L_Ankle_Lateral			L_Heel			L_Toe		
		X1	Y1	Z1	X2	Y2	Z2	X3	Y3	Z3	X4	Y4	Z4	X5	Y5	Z5	X6	Y6	Z6	X7	Y7	Z7	X8	Y8	Z8	X9	Y9	Z9	X10	Y10	Z10	X11	Y11	Z11	X12	Y12	Z12	X13	Y13	Z13	X14	Y14	Z14	X15	Y15	Z15	X16	Y16	Z16	X17	Y17	Z17	X18	Y18	Z18	X19	Y19	Z19	X20	Y20	Z20	X21	Y21	Z21	X22	Y22	Z22	X23	Y23	Z23	X24	Y24	Z24	X25	Y25	Z25
350	3.49000000	2326.498047	1345.622559	-164.025681	2327.315430	1320.744141	-509.639801	2261.593750	1406.108154	-323.602966	2398.513916	1297.195312	-326.665985	2240.220703	1035.586060	-86.081017	2258.830811	1010.607910	-560.150757	2300.664551	804.536743	-48.611917	2345.847656	792.317383	-565.798401	2382.767578	907.092468	-205.493149	2385.998779	909.810059	-434.751862	2160.765625	896.145630	-318.088043	2174.827881	1149.673706	-321.878601	2428.346680	1116.315063	-314.394226	2360.838135	496.771393	-140.646194	2373.593750	443.531219	-182.150085	2217.365234	323.434753	-153.429672	2113.873047	186.147537	-218.992844	2071.773438	191.370300	-276.226959	2179.078125	81.983818	-215.895645	2333.386719	509.965210	-502.427917	2331.502441	438.017883	-427.327118	2292.363525	228.324677	-448.282654	2281.657715	64.335335	-369.654816	2248.229004	36.269684	-310.443359	2409.458008	37.351921	-366.535980
351	3.50000000	2336.384277	1346.042358	-164.172958	2339.075928	1321.681641	-509.785339	2272.375244	1406.624634	-323.970215	2409.158203	1297.573242	-326.552216	2248.290283	1036.121338	-87.030243	2271.401855	1011.277161	-560.858887	2306.533447	804.858093	-48.134321	2361.067993	793.961700	-565.012329	2392.767578	908.254517	-206.305435	2396.057373	909.966919	-435.614990	2170.781738	896.257507	-318.012177	2184.295898	1150.577271	-322.927216	2438.736084	1116.644043	-314.260315	2380.345703	499.354584	-140.370911	2393.417480	446.105103	-182.349304	2240.664551	320.919708	-153.787949	2143.063965	179.195374	-218.924622	2100.461426	181.759460	-276.082001	2213.687500	79.342567	-214.098953	2336.952393	510.128387	-502.570343	2333.577881	437.988159	-427.342712	2293.416992	228.292419	-448.202423	2281.858643	64.444794	-369.570679	2248.300049	36.461800	-310.399261	2409.597168	37.275719	-366.580597
352	3.51000000	2346.227051	1346.277832	-164.339981	2350.758057	1322.401489	-509.943787	2283.102295	1406.944458	-324.360657	2419.765381	1297.777588	-326.463776	2256.338135	1036.469849	-87.976753	2283.936523	1011.719421	-561.537476	2312.605225	805.049652	-47.710564	2376.282227	795.431915	-564.150116	2402.802246	909.183655	-207.072556	2406.138428	909.922852	-436.421600	2180.830811	896.175720	-317.865112	2193.480225	1151.370972	-323.793518	2449.116699	1116.803589	-314.179108	2399.431885	501.872589	-140.142685	2412.625977	448.527924	-182.587006	2263.939697	317.615082	-153.998703	2172.957764	171.392761	-218.687195	2130.009521	171.305313	-275.708984	2248.928467	76.194237	-212.452957	2340.305908	510.283966	-502.628845	2335.624023	437.977966	-427.293732	2294.460938	228.292725	-448.105286	2282.062012	64.564903	-369.476440	2248.363770	36.664551	-310.357117	2409.744873	37.201817	-366.609680
353	3.52000000	2356.042725	1346.318115	-164.519714	2362.358887	1322.889893	-510.110352	2293.785156	1407.065430	-324.766937	2430.343018	1297.800903	-326.395996	2264.404541	1036.630737	-88.898903	2296.433105	1011.926331	-562.175293	2318.897949	805.092560	-47.334654	2391.468140	796.716614	-563.212219	2412.864258	909.898621	-207.767136	2416.253418	909.671692	-437.154999	2190.916504	895.925537	-317.684540	2202.585205	1152.005249	-324.551758	2459.493164	1116.786011	-314.144470	2418.002441	504.281036	-139.988876	2431.191895	450.746124	-182.856094	2287.262695	313.539856	-154.064301	2203.551025	162.912079	-218.298752	2160.440674	160.207626	-275.177307	2284.720459	72.667336	-210.930893	2343.482422	510.451843	-502.619293	2337.647217	437.993500	-427.199890	2295.466309	228.329681	-448.003754	2282.263184	64.701836	-369.379120	2248.423340	36.884296	-310.321625	2409.897461	37.131447	-366.629486
354	3.53000000	2365.845947	1346.156982	-164.704178	2373.876953	1323.138306	-510.278900	2304.431152	1406.987305	-325.180176	2440.896484	1297.638550	-326.343628	2272.526611	1036.604126	-89.779022	2308.891113	1011.893677	-562.761658	2325.426025	804.972290	-46.999769	2406.605957	797.808655	-562.198059	2422.945068	910.418457	-208.363190	2426.411865	909.216370	-437.797607	2201.045410	895.528625	-317.504517	2211.879639	1152.412476	-325.306305	2469.868408	1116.586304	-314.147339	2435.968750	506.535156	-139.925888	2449.095947	452.708679	-183.146851	2310.712158	308.740570	-153.985580	2234.831787	153.939346	-217.778961	2191.756836	148.681015	-274.550812	2320.988770	68.905930	-209.518600	2346.514893	510.648071	-502.556274	2339.657471	438.043396	-427.079956	2296.417480	228.407944	-447.906342	2282.459229	64.863350	-369.283020	2248.484131	37.129665	-310.294250	2410.051758	37.065216	-366.645844
355	3.54000000	2375.651123	1345.792725	-164.884964	2385.311279	1323.143066	-510.442505	2315.044678	1406.710938	-325.589874	2451.429443	1297.288696	-326.301086	2280.735352	1036.390747	-90.604523	2321.311523	1011.620850	-563.286621	2332.200562	804.678680	-46.699179	2421.678589	798.704376	-561.107086	2433.036377	910.757751	-208.839523	2436.621094	908.568359	-438.333771	2211.224854	894.999939	-317.352142	2221.641113	1152.519775	-326.167328	2480.244141	1116.202515	-314.176910	2453.254395	508.589050	-139.958130	2466.329102	454.369141	-183.446747	2334.358643	303.296356	-153.762100	2266.776367	144.669739	-217.147217	2223.932861	136.946716	-273.878906	2357.661133	65.067337	-208.218079	2349.433838	510.883179	-502.451294	2341.669922	438.138245	-426.948944	2297.310303	228.534653	-447.815430	2282.648682	65.058701	-369.187897	2248.553223	37.411846	-310.271759	2410.205811	37.003162	-366.663055
